<svg xmlns="http://www.w3.org/2000/svg" viewBox="0 0 500 500" width="500" height="500">
  <rect width="100%" height="100%" fill="white"/>
  <path d="M60 60c30-20 70 10 60 40s-50 40-70 20 0-40 10-60z" fill="black"/>
  <path d="M220 100c40-10 80 20 60 50s-70 30-90 10 0-40 30-60z" fill="black"/>
  <path d="M280 190c20-30 60-10 70 20s-20 50-50 40-50-30-20-60z" fill="black"/>
  <path d="M120 280c20-10 40 10 30 40s-30 30-50 10 0-40 20-50z" fill="black"/>
  <path d="M330 340c50-20 90 30 70 60s-80 30-100 0 0-50 30-60z" fill="black"/>
  <path d="M180 300c30-20 50 10 40 40s-40 20-60 10 0-30 20-50z" fill="black"/>
  <path d="M260 260c20-15 30 5 20 25s-20 10-30 5 0-20 10-30z" fill="black"/>
  <path d="M260 360c20-14 20 5 20 25s-20 10-30 5 0-20 10-30z" fill="black"/>
  <path d="M100 20c20-10 50 10 40 30s-30 20-50 10 0-20 10-40z" fill="black"/>
  <path d="M300 30c30-15 60 10 40 40s-50 30-70 10 0-30 30-50z" fill="black"/>
  <path d="M150 450c40-10 70 20 50 40s-60 20-80 0 0-30 30-40z" fill="black"/>
  <path d="M350 420c30-10 60 10 40 40s-50 30-70 10 0-30 30-50z" fill="black"/>
</svg>
